<svg xmlns="http://www.w3.org/2000/svg" width="34" height="34" viewBox="0 0 34 34">
  <g id="Group_41750" data-name="Group 41750" transform="translate(0 -243)">
    <rect id="Rectangle_17783" data-name="Rectangle 17783" width="40" height="40" transform="translate(0 243)" fill="none"/>
    <path id="Path_18518" data-name="Path 18518" d="M20.139,13.125h1.2a1.2,1.2,0,0,0,1.2-1.2v-1.2a1.2,1.2,0,0,0-1.2-1.2h-1.2a1.2,1.2,0,0,0-1.2,1.2v1.2a1.2,1.2,0,0,0,1.2,1.2Zm-13.161,1.2H12.96a1.2,1.2,0,0,0,0-2.393H6.978a1.2,1.2,0,0,0,0,2.393ZM26.121,4.75H2.193A1.2,1.2,0,0,0,1,5.946V22.7a1.2,1.2,0,0,0,1.2,1.2H26.121a1.2,1.2,0,0,0,1.2-1.2V5.946a1.2,1.2,0,0,0-1.2-1.2Zm-1.2,16.75H3.389V7.143H24.924ZM6.978,19.107H12.96a1.2,1.2,0,0,0,0-2.393H6.978a1.2,1.2,0,0,0,0,2.393Z" transform="translate(5.843 248.679)" fill="#000048"/>
  </g>
</svg>
