<svg id="Component_170_4" data-name="Component 170 – 4" xmlns="http://www.w3.org/2000/svg" width="32" height="32" viewBox="0 0 32 32">
  <rect id="Rectangle_17788" data-name="Rectangle 17788" width="32" height="32" rx="8" fill="none"/>
  <path id="documents" d="M15.152,18.826H7.674a2.8,2.8,0,0,1-2.8-2.8V6.674a.935.935,0,1,0-1.87,0v9.348A4.674,4.674,0,0,0,7.674,20.7h7.478a.935.935,0,0,0,0-1.87ZM19.826,8.487a1.222,1.222,0,0,0-.056-.252V8.151a1,1,0,0,0-.178-.262L13.984,2.28a1,1,0,0,0-.262-.178h-.084l-.3-.1h-3.8a2.8,2.8,0,0,0-2.8,2.8v9.348a2.8,2.8,0,0,0,2.8,2.8h7.478a2.8,2.8,0,0,0,2.8-2.8V8.487Zm-5.609-3.3,2.421,2.421H15.152a.935.935,0,0,1-.935-.935Zm3.739,8.965a.935.935,0,0,1-.935.935H9.544a.935.935,0,0,1-.935-.935V4.8a.935.935,0,0,1,.935-.935h2.8v2.8a2.8,2.8,0,0,0,2.8,2.8h2.8Z" transform="translate(5 5)" fill="#000048"/>
</svg>
