<svg id="Component_87_6" data-name="Component 87 – 6" xmlns="http://www.w3.org/2000/svg" width="26" height="26" viewBox="0 0 26 26">
  <rect id="Rectangle_17800" data-name="Rectangle 17800" width="26" height="26" fill="none"/>
  <path id="Vector2222222" d="M10.8,0H2.712A1.906,1.906,0,0,0,.838,1.563L.031,6.009A1.906,1.906,0,0,0,1.9,8.257H4.8l-.356.908A2.623,2.623,0,0,0,6.917,12.7a.635.635,0,0,0,.578-.375L9.3,8.257H10.8A1.906,1.906,0,0,0,12.7,6.352V1.906A1.906,1.906,0,0,0,10.8,0ZM8.257,7.489,6.529,11.376A1.353,1.353,0,0,1,5.653,9.61L5.989,8.7A1.27,1.27,0,0,0,4.8,6.987H1.9a.645.645,0,0,1-.635-.75l.807-4.446a.635.635,0,0,1,.635-.521H8.257Zm3.176-1.137a.635.635,0,0,1-.635.635H9.527V1.27H10.8a.635.635,0,0,1,.635.635Z" transform="translate(19.352 19.352) rotate(180)" fill="#000048"/>
</svg>
