<svg xmlns="http://www.w3.org/2000/svg" width="18" height="18" viewBox="0 0 18 18">
  <g id="Group_41736" data-name="Group 41736" transform="translate(-72.761 -149.761)">
    <path id="Path_18455" data-name="Path 18455" d="M0,0H18V18H0Z" transform="translate(72.761 149.761)" fill="none"/>
    <path id="Path_18454" data-name="Path 18454" d="M25.239,15l-5.026-4.388a2.52,2.52,0,0,0-3.35,0L11.838,15A2.5,2.5,0,0,0,11,16.888V24.18a2.508,2.508,0,0,0,2.513,2.5H23.564a2.508,2.508,0,0,0,2.513-2.5v-7.3A2.5,2.5,0,0,0,25.239,15ZM20.214,25.014h-3.35V20.842a.836.836,0,0,1,.838-.834h1.675a.836.836,0,0,1,.838.834ZM24.4,24.18a.836.836,0,0,1-.838.834H21.889V20.842a2.508,2.508,0,0,0-2.513-2.5H17.7a2.508,2.508,0,0,0-2.513,2.5v4.171H13.513a.836.836,0,0,1-.838-.834v-7.3a.833.833,0,0,1,.285-.626l5.026-4.38a.84.84,0,0,1,1.106,0l5.026,4.38a.833.833,0,0,1,.285.626Z" transform="translate(63.222 140.431)" fill="#2f78c4"/>
  </g>
</svg>
