<svg xmlns="http://www.w3.org/2000/svg" width="28" height="28" viewBox="0 0 28 28">
  <g id="Group_41708" data-name="Group 41708" transform="translate(7712 -9056)">
    <rect id="Rectangle_17689" data-name="Rectangle 17689" width="28" height="28" transform="translate(-7712 9056)" fill="none"/>
    <path id="Trash" d="M11.735,21.965a1.248,1.248,0,0,0,1.248-1.248V13.23a1.248,1.248,0,0,0-2.5,0v7.487a1.248,1.248,0,0,0,1.248,1.248ZM24.213,6.991H19.222V5.743A3.744,3.744,0,0,0,15.478,2h-2.5A3.743,3.743,0,0,0,9.239,5.743V6.991H4.248a1.248,1.248,0,1,0,0,2.5H5.5V23.213a3.744,3.744,0,0,0,3.743,3.743h9.983a3.744,3.744,0,0,0,3.743-3.743V9.487h1.248a1.248,1.248,0,0,0,0-2.5ZM11.735,5.743A1.248,1.248,0,0,1,12.983,4.5h2.5a1.248,1.248,0,0,1,1.248,1.248V6.991H11.735Zm8.735,17.47a1.248,1.248,0,0,1-1.248,1.248H9.239a1.248,1.248,0,0,1-1.248-1.248V9.487H20.47Zm-3.743-1.248a1.248,1.248,0,0,0,1.248-1.248V13.23a1.248,1.248,0,0,0-2.5,0v7.487a1.248,1.248,0,0,0,1.248,1.248Z" transform="translate(-7710 9058)" fill='#FFFFFF'/>
  </g>
</svg>
