<svg xmlns="http://www.w3.org/2000/svg" width="32" height="32" viewBox="0 0 32 32">
  <g id="Group_41777" data-name="Group 41777" transform="translate(-310 -12)">
    <rect id="Rectangle_17795" data-name="Rectangle 17795" width="32" height="32" transform="translate(310 12)" fill="none"/>
    <path id="navigation_arrow" data-name="navigation arrow" d="M22.644,10.548,6.74,3.982A3.408,3.408,0,0,0,2.2,8.185l1.749,5.51L2.151,19.2a3.381,3.381,0,0,0,4.5,4.226L22.61,16.864a3.408,3.408,0,0,0,0-6.293ZM5.82,21.306a1.124,1.124,0,0,1-1.511-1.352L5.968,14.83h15.6Zm.148-8.747L4.275,7.481a1.171,1.171,0,0,1,1.579-1.4l15.711,6.475Z" transform="translate(312.792 14.294)" fill="#000048"/>
  </g>
</svg>
