<svg xmlns="http://www.w3.org/2000/svg" width="32" height="32" viewBox="0 0 32 32">
  <g id="Group_41728" data-name="Group 41728" transform="translate(7729 -9056)">
    <rect id="Rectangle_17689" data-name="Rectangle 17689" width="32" height="32" transform="translate(-7729 9056)" fill="none"/>
    <path id="documents" d="M17.3,21.8H8.5a3.3,3.3,0,0,1-3.3-3.3V7.5A1.1,1.1,0,1,0,3,7.5v11A5.5,5.5,0,0,0,8.5,24h8.8a1.1,1.1,0,0,0,0-2.2Zm-6.6-7.7a1.1,1.1,0,0,0,1.1,1.1h5.5a1.1,1.1,0,0,0,0-2.2H11.8a1.1,1.1,0,0,0-1.1,1.1ZM22.8,9.634a1.438,1.438,0,0,0-.066-.3v-.1a1.177,1.177,0,0,0-.209-.308l-6.6-6.6a1.178,1.178,0,0,0-.308-.209.352.352,0,0,0-.1,0A.968.968,0,0,0,15.155,2H10.7A3.3,3.3,0,0,0,7.4,5.3v11a3.3,3.3,0,0,0,3.3,3.3h8.8a3.3,3.3,0,0,0,3.3-3.3V9.634ZM16.2,5.751,19.049,8.6H17.3a1.1,1.1,0,0,1-1.1-1.1ZM20.6,16.3a1.1,1.1,0,0,1-1.1,1.1H10.7a1.1,1.1,0,0,1-1.1-1.1V5.3a1.1,1.1,0,0,1,1.1-1.1H14V7.5a3.3,3.3,0,0,0,.2,1.1H11.8a1.1,1.1,0,0,0,0,2.2h8.8Z" transform="translate(-7726 9059)" fill="#000048"/>
  </g>
</svg>
