<svg xmlns="http://www.w3.org/2000/svg" width="15.139" height="15.119" viewBox="0 0 15.139 15.119">
  <path id="Path_18468" data-name="Path 18468" d="M6.525,8.8a.756.756,0,1,0,.534.221A.756.756,0,0,0,6.525,8.8Zm3.024,0a.756.756,0,1,0,.534.221A.756.756,0,0,0,9.549,8.8Zm3.024,0a.756.756,0,1,0,.534.221A.756.756,0,0,0,12.573,8.8ZM9.549,2A7.559,7.559,0,0,0,1.99,9.559,7.476,7.476,0,0,0,3.7,14.344L2.187,15.856a.74.74,0,0,0,.559,1.262h6.8A7.559,7.559,0,1,0,9.549,2Zm0,13.606H4.568l.7-.7a.74.74,0,0,0,0-1.066,6.047,6.047,0,1,1,4.278,1.769Z" transform="translate(-1.969 -2)" fill="#000048"/>
</svg>
