<svg xmlns="http://www.w3.org/2000/svg" width="23.56" height="23.56" viewBox="0 0 23.56 23.56">
  <path id="Pen" d="M24.376,14.28A1.178,1.178,0,0,0,23.2,15.457v7.066A1.178,1.178,0,0,1,22.02,23.7H5.533a1.178,1.178,0,0,1-1.178-1.178V6.036A1.178,1.178,0,0,1,5.533,4.858H12.6a1.178,1.178,0,0,0,0-2.355H5.533A3.533,3.533,0,0,0,2,6.036V22.523a3.533,3.533,0,0,0,3.533,3.533H22.02a3.533,3.533,0,0,0,3.533-3.533V15.457a1.178,1.178,0,0,0-1.178-1.178Zm-17.665.9v4.993a1.178,1.178,0,0,0,1.178,1.178h4.993A1.177,1.177,0,0,0,13.718,21l8.149-8.161,3.345-3.274a1.178,1.178,0,0,0,0-1.672L20.218,2.844a1.178,1.178,0,0,0-1.672,0L15.225,6.177,7.052,14.338a1.178,1.178,0,0,0-.342.836ZM19.382,5.341l3.333,3.333-1.672,1.672L17.71,7.013ZM9.066,15.657l6.984-6.984,3.333,3.333L12.4,18.99H9.066Z" transform="translate(-2 -2.496)" fill="#010048"/>
</svg>
