<svg xmlns="http://www.w3.org/2000/svg" width="40" height="40" viewBox="0 0 40 40">
  <g id="Group_41750" data-name="Group 41750" transform="translate(0 -243)">
    <rect id="Rectangle_17783" data-name="Rectangle 17783" width="40" height="40" transform="translate(0 243)" fill="none"/>
    <path id="Vector" d="M11.052,9.973H1.579a1.579,1.579,0,1,0,0,3.158H4.737v7.895a1.579,1.579,0,0,0,3.158,0V13.131h3.158a1.579,1.579,0,1,0,0-3.158ZM30,.5H11.052a1.579,1.579,0,1,0,0,3.158h7.895V21.026a1.579,1.579,0,0,0,3.158,0V3.658H30A1.579,1.579,0,0,0,30,.5Z" transform="translate(4.211 251.448)" fill="#010048" stroke="#fff" stroke-width="1"/>
  </g>
</svg>
