<svg id="Group_41458" data-name="Group 41458" xmlns="http://www.w3.org/2000/svg" width="32" height="32" viewBox="0 0 32 32">
  <rect id="Rectangle_17689" data-name="Rectangle 17689" width="32" height="32" fill="none"/>
  <path id="Path_18480" data-name="Path 18480" d="M8.9,9.075a1.179,1.179,0,1,0,0,2.358h1.179a1.179,1.179,0,1,0,0-2.358Zm5.9,14.15H6.538a1.179,1.179,0,0,1-1.179-1.179V5.538A1.179,1.179,0,0,1,6.538,4.358h5.9V7.9a3.538,3.538,0,0,0,3.538,3.538h3.538v2.358a1.179,1.179,0,0,0,2.358,0V10.184a1.541,1.541,0,0,0-.071-.318V9.759a1.262,1.262,0,0,0-.224-.33L14.5,2.354a1.263,1.263,0,0,0-.33-.224.342.342,0,0,0-.118,0A1.3,1.3,0,0,0,13.683,2H6.538A3.538,3.538,0,0,0,3,5.538V22.046a3.538,3.538,0,0,0,3.538,3.538h8.254a1.179,1.179,0,0,0,0-2.358Zm0-17.2,3.054,3.054H15.971A1.179,1.179,0,0,1,14.792,7.9Zm1.179,7.771H8.9a1.179,1.179,0,0,0,0,2.358h7.075a1.179,1.179,0,0,0,0-2.358Zm7.912,7.417a1.179,1.179,0,0,0-1.674,0l-.342.354V18.509a1.179,1.179,0,0,0-2.358,0v3.054l-.342-.354a1.184,1.184,0,1,0-1.674,1.674l2.358,2.358a1.179,1.179,0,0,0,.389.248,1.109,1.109,0,0,0,.9,0,1.179,1.179,0,0,0,.389-.248l2.358-2.358a1.179,1.179,0,0,0,0-1.674Zm-10.271-.342a1.179,1.179,0,0,0,0-2.358H8.9a1.179,1.179,0,0,0,0,2.358Z" transform="translate(2.389 2.208)" fill="#000048" stroke="#fff" stroke-width="1.3"/>
</svg>
