<svg id="Group_41458" data-name="Group 41458" xmlns="http://www.w3.org/2000/svg" width="32" height="32" viewBox="0 0 32 32">
  <rect id="Rectangle_17689" data-name="Rectangle 17689" width="32" height="32" fill="none"/>
  <path id="Path_18444" data-name="Path 18444" d="M26.583,7.758,19.439.613A.385.385,0,0,0,19.167.5H11.075A3.419,3.419,0,0,0,7.66,3.916v6.76h-3a1.052,1.052,0,0,0-1.05,1.05v6.037a1.052,1.052,0,0,0,1.05,1.05h3v2.938a3.419,3.419,0,0,0,3.415,3.416h12.2A3.42,3.42,0,0,0,26.7,21.751V8.03A.385.385,0,0,0,26.583,7.758ZM19.552,1.815l5.829,5.83H19.937a.386.386,0,0,1-.385-.387V1.815ZM4.382,17.763V11.726a.28.28,0,0,1,.28-.28H21.12a.28.28,0,0,1,.28.28v6.037a.28.28,0,0,1-.28.28H4.662A.28.28,0,0,1,4.382,17.763ZM23.28,24.4h-12.2A2.648,2.648,0,0,1,8.43,21.751V18.814H21.12a1.052,1.052,0,0,0,1.05-1.05V11.726a1.052,1.052,0,0,0-1.05-1.05H8.43V3.916a2.648,2.648,0,0,1,2.645-2.645h7.706V7.259a1.157,1.157,0,0,0,1.155,1.157h5.988V21.752A2.648,2.648,0,0,1,23.28,24.4Zm-14.2-12.1H7.839a.385.385,0,0,0-.385.385v4.132a.385.385,0,1,0,.771,0V15.6H9.08a1.628,1.628,0,0,0,1.626-1.626V13.92A1.628,1.628,0,0,0,9.08,12.294Zm.856,1.678a.857.857,0,0,1-.856.856H8.224V13.064H9.08a.857.857,0,0,1,.856.856Zm3.093-1.678H11.788a.385.385,0,0,0-.385.385v4.132a.385.385,0,1,0,.771,0V15.6h.856a1.628,1.628,0,0,0,1.626-1.626V13.92A1.628,1.628,0,0,0,13.03,12.294Zm.856,1.678a.857.857,0,0,1-.856.856h-.856V13.064h.856a.857.857,0,0,1,.856.856Zm4.443-1.293a.385.385,0,0,1-.385.385h-.856v3.747a.385.385,0,1,1-.771,0V13.064H15.46a.385.385,0,0,1,0-.771h2.483A.386.386,0,0,1,18.329,12.679Z" transform="translate(0.845 3.167)" fill="#000048" stroke="#000048" stroke-width="0.2"/>
</svg>
