<svg xmlns="http://www.w3.org/2000/svg" width="32" height="32" viewBox="0 0 32 32">
  <g id="Group_41720" data-name="Group 41720" transform="translate(7729 -9056)">
    <rect id="Rectangle_17689" data-name="Rectangle 17689" width="32" height="32" transform="translate(-7729 9056)" fill="none"/>
    <path id="download" d="M17.033,11.495a.791.791,0,0,0-.791.791v3.165a.791.791,0,0,1-.791.791H4.374a.791.791,0,0,1-.791-.791V12.286a.791.791,0,0,0-1.582,0v3.165a2.374,2.374,0,0,0,2.374,2.374H15.451a2.374,2.374,0,0,0,2.374-2.374V12.286a.791.791,0,0,0-.791-.791ZM9.35,12.847a.791.791,0,0,0,.261.166.744.744,0,0,0,.6,0,.791.791,0,0,0,.261-.166l3.165-3.165a.794.794,0,0,0-1.124-1.124L10.7,10.379V2.791a.791.791,0,0,0-1.582,0v7.588L7.309,8.559A.794.794,0,0,0,6.186,9.683Z" transform="translate(-7722.912 9062.088)" fill="#000048"/>
  </g>
</svg>
