<svg xmlns="http://www.w3.org/2000/svg" width="40" height="40" viewBox="0 0 40 40">
  <g id="Group_41750" data-name="Group 41750" transform="translate(0 -243)">
    <rect id="Rectangle_17783" data-name="Rectangle 17783" width="40" height="40" transform="translate(0 243)" fill="none"/>
    <path id="Vector" d="M15.536,27.964H4.661A1.554,1.554,0,0,1,3.107,26.41V4.661A1.554,1.554,0,0,1,4.661,3.107h7.768V7.768a4.661,4.661,0,0,0,4.661,4.661H21.75v1.554a1.554,1.554,0,0,0,3.107,0v-3.2a2.031,2.031,0,0,0-.093-.419v-.14a1.663,1.663,0,0,0-.3-.435L15.147.466a1.662,1.662,0,0,0-.435-.3.5.5,0,0,0-.14,0A1.367,1.367,0,0,0,14.06,0h-9.4A4.661,4.661,0,0,0,0,4.661V26.41a4.661,4.661,0,0,0,4.661,4.661H15.536a1.554,1.554,0,0,0,0-3.107Zm0-22.666,4.024,4.024h-2.47a1.554,1.554,0,0,1-1.554-1.554ZM7.768,9.321a1.554,1.554,0,1,0,0,3.107H9.321a1.554,1.554,0,1,0,0-3.107ZM30.621,28.415l-1.818-1.8a5.344,5.344,0,0,0-.839-6.416A5.489,5.489,0,1,0,26.612,28.8l1.8,1.818a1.56,1.56,0,1,0,2.206-2.206ZM25.7,25.7a2.393,2.393,0,0,1-3.278,0,2.33,2.33,0,0,1-.668-1.631,2.269,2.269,0,0,1,.684-1.647,2.318,2.318,0,0,1,3.977,1.647A2.331,2.331,0,0,1,25.7,25.7Zm-8.607-10.16H7.768a1.554,1.554,0,0,0,0,3.107h9.321a1.554,1.554,0,0,0,0-3.107Zm-3.107,9.321a1.554,1.554,0,0,0,0-3.107H7.768a1.554,1.554,0,0,0,0,3.107Z" transform="translate(4.46 247.46)" fill="#010048" stroke="#fff" stroke-width="1"/>
  </g>
</svg>
