<svg xmlns="http://www.w3.org/2000/svg" width="40" height="40" viewBox="0 0 40 40">
  <g id="Group_41750" data-name="Group 41750" transform="translate(0 -243)">
    <rect id="Rectangle_17783" data-name="Rectangle 17783" width="40" height="40" transform="translate(0 243)" fill="none"/>
    <path id="download_image" data-name="download image" d="M35.488,9.555a1.617,1.617,0,0,0-2.3,0l-2.086,2.1V2.617a1.617,1.617,0,0,0-3.234,0v9.04l-2.086-2.1a1.624,1.624,0,1,0-2.3,2.3L28.34,16.7a1.618,1.618,0,0,0,.534.34,1.521,1.521,0,0,0,1.229,0,1.619,1.619,0,0,0,.534-.34l4.852-4.852a1.617,1.617,0,0,0,0-2.3Zm-6,10.851a1.617,1.617,0,0,0-1.617,1.617v.615l-2.393-2.393a4.512,4.512,0,0,0-6.356,0L17.99,21.377,13.98,17.366a4.609,4.609,0,0,0-6.356,0L5.231,19.76V10.7A1.617,1.617,0,0,1,6.848,9.086H19.785a1.617,1.617,0,0,0,0-3.234H6.848A4.852,4.852,0,0,0,2,10.7V30.11a4.852,4.852,0,0,0,4.852,4.852H26.254a4.852,4.852,0,0,0,4.852-4.852V22.024a1.617,1.617,0,0,0-1.617-1.617ZM6.848,31.727A1.617,1.617,0,0,1,5.231,30.11V24.336l4.69-4.69a1.278,1.278,0,0,1,1.763,0l5.127,5.127,6.954,6.954ZM27.871,30.11a1.439,1.439,0,0,1-.291.857l-7.294-7.326,1.132-1.132a1.245,1.245,0,0,1,1.779,0l4.674,4.706Z" transform="translate(1.504 245.5)" fill="#000048" stroke="#fff" stroke-width="1"/>
  </g>
</svg>
