<svg xmlns="http://www.w3.org/2000/svg" width="25.264" height="25.264" viewBox="0 0 25.264 25.264">
  <path id="Path_18467" data-name="Path 18467" d="M21.811,18.1V5.715A3.715,3.715,0,0,0,18.1,2H5.715A3.715,3.715,0,0,0,2,5.715V18.1a3.715,3.715,0,0,0,3.715,3.715H18.1A3.715,3.715,0,0,0,21.811,18.1ZM4.476,5.715A1.238,1.238,0,0,1,5.715,4.476H18.1a1.238,1.238,0,0,1,1.238,1.238v5.4L18,9.763a3.169,3.169,0,0,0-4.482,0L12.388,10.89l-1-1a3.628,3.628,0,0,0-5.089,0L4.476,11.72Zm.149,12.939a1.164,1.164,0,0,1-.149-.557V15.211l3.566-3.566a1.127,1.127,0,0,1,1.6,0l1.028,1Zm10.648-7.132a.655.655,0,0,1,.966,0l3.1,3.083V18.1A1.238,1.238,0,0,1,18.1,19.335H7.448ZM25.525,6.953a1.238,1.238,0,0,0-1.238,1.238V20.573a3.715,3.715,0,0,1-3.715,3.715H8.191a1.238,1.238,0,0,0,0,2.476H20.573a6.191,6.191,0,0,0,6.191-6.191V8.191a1.238,1.238,0,0,0-1.238-1.238Z" transform="translate(-1.75 -1.75)" fill="#000048" stroke="#fff" stroke-width="0.5"/>
</svg>
