<svg xmlns="http://www.w3.org/2000/svg" xmlns:xlink="http://www.w3.org/1999/xlink" width="44" height="44" viewBox="0 0 44 44">
  <defs>
    <filter id="Rectangle_17800" x="0" y="0" width="44" height="44" filterUnits="userSpaceOnUse">
      <feOffset dy="3" input="SourceAlpha"/>
      <feGaussianBlur stdDeviation="3" result="blur"/>
      <feFlood flood-opacity="0.161"/>
      <feComposite operator="in" in2="blur"/>
      <feComposite in="SourceGraphic"/>
    </filter>
  </defs>
  <g id="Component_87_5" data-name="Component 87 – 5" transform="translate(9 6)">
    <g transform="matrix(1, 0, 0, 1, -9, -6)" filter="url(#Rectangle_17800)">
      <rect id="Rectangle_17800-2" data-name="Rectangle 17800" width="26" height="26" rx="13" transform="translate(9 6)" fill="#f7f7f5"/>
    </g>
    <path id="Downwww" d="M11.391.543H2.862A2.01,2.01,0,0,0,.886,2.192L.035,6.881A2.01,2.01,0,0,0,2.011,9.253H5.066l-.375.958A2.767,2.767,0,0,0,7.3,13.943a.67.67,0,0,0,.61-.4L9.816,9.253h1.574a2.01,2.01,0,0,0,2.01-2.01V2.553a2.01,2.01,0,0,0-2.01-2.01Zm-2.68,7.9-1.822,4.1a1.427,1.427,0,0,1-.925-1.863l.355-.958A1.34,1.34,0,0,0,5.066,7.913H2.011a.68.68,0,0,1-.67-.791l.851-4.69a.67.67,0,0,1,.67-.549H8.711Zm3.35-1.2a.67.67,0,0,1-.67.67h-1.34V1.883h1.34a.67.67,0,0,1,.67.67Z" transform="translate(6.299 5.757)" fill="#000048"/>
  </g>
</svg>
