<svg id="Group_41458" data-name="Group 41458" xmlns="http://www.w3.org/2000/svg" width="32" height="32" viewBox="0 0 32 32">
  <rect id="Rectangle_17689" data-name="Rectangle 17689" width="32" height="32" fill="none"/>
  <g id="Group_41637" data-name="Group 41637" transform="translate(-5.803 1.445)">
    <path id="Path_18445" data-name="Path 18445" d="M28.2,18.477a3.215,3.215,0,0,1-1.282.032,6.116,6.116,0,0,1-1.619-.483,4.807,4.807,0,0,1,2.336.129,2.553,2.553,0,0,1,.565.322M22.855,17.6l-.115.031c-.258.07-.508.139-.75.2l-.326.083c-.655.166-1.325.335-1.987.537.252-.607.485-1.22.714-1.819.169-.444.342-.9.521-1.345q.136.225.284.45A8.762,8.762,0,0,0,22.855,17.6m-1.667-6.84a5.651,5.651,0,0,1-.356,2.159,3.458,3.458,0,0,1-.063-2.558,1.473,1.473,0,0,1,.22-.354,1.66,1.66,0,0,1,.2.754m-3.421,9.48c-.164.293-.331.568-.5.827-.414.624-1.091,1.292-1.438,1.292a.171.171,0,0,1-.136-.069.13.13,0,0,1-.043-.11,2.048,2.048,0,0,1,.756-1.016,7.435,7.435,0,0,1,1.365-.923m11.539-1.73c-.053-.764-1.339-1.254-1.352-1.259a4.872,4.872,0,0,0-1.651-.262,9.891,9.891,0,0,0-2.275.308A7.917,7.917,0,0,1,22,15.209c-.231-.351-.438-.7-.619-1.045a7.744,7.744,0,0,0,.767-3.461C22.087,9.685,21.627,9,21,9c-.429,0-.8.317-1.1.944-.535,1.117-.395,2.547.418,4.253-.293.687-.565,1.4-.828,2.09-.327.858-.665,1.743-1.045,2.585a9.232,9.232,0,0,0-2.673,1.562,2.761,2.761,0,0,0-1.088,1.695,1.084,1.084,0,0,0,.3.819,1.127,1.127,0,0,0,.832.368c1.043,0,2.047-1.433,2.237-1.72a15.567,15.567,0,0,0,1.093-1.965c.885-.32,1.829-.559,2.743-.79l.327-.083c.246-.063.5-.132.764-.2.278-.075.564-.153.854-.227a7.555,7.555,0,0,0,2.933,1.129,3.525,3.525,0,0,0,2.065-.209.759.759,0,0,0,.463-.738m2.02,6.568a1.41,1.41,0,0,1-1.482,1.488H13.936a1.411,1.411,0,0,1-1.481-1.488V3.944a1.41,1.41,0,0,1,1.481-1.488H24.682l.006.006V6.655A2.348,2.348,0,0,0,27.124,9.09H31.29l.036.036V25.077ZM30.338,8.134H27.124a1.4,1.4,0,0,1-1.48-1.479V3.421Zm1.943,16.943V8.731L25.644,2.067V2.036h-.032L25.08,1.5H13.936A2.352,2.352,0,0,0,11.5,3.944V25.078a2.353,2.353,0,0,0,2.436,2.444H29.845a2.352,2.352,0,0,0,2.436-2.444" transform="translate(0)" fill="#000048"/>
  </g>
</svg>
