<svg xmlns="http://www.w3.org/2000/svg" width="48" height="48" viewBox="0 0 48 48">
  <g id="Group_41896" data-name="Group 41896" transform="translate(0 -0.12)">
    <rect id="Rectangle_17828" data-name="Rectangle 17828" width="48" height="48" transform="translate(0 0.12)" fill="#fff"/>
    <g id="noun-collaboration-5931333" transform="translate(5.526 5.651)">
      <path id="Path_18478" data-name="Path 18478" d="M20.033,8.372a3.115,3.115,0,1,0-3.119,0A4.63,4.63,0,0,0,13.222,12.4a2.161,2.161,0,0,0,2.146,2.4h6.214a2.161,2.161,0,0,0,2.146-2.4A4.638,4.638,0,0,0,20.033,8.372Zm-3.9-2.7a2.341,2.341,0,1,1,2.341,2.341A2.343,2.343,0,0,1,16.133,5.675Zm6.479,7.884a1.337,1.337,0,0,1-1.03.463H15.365a1.384,1.384,0,0,1-1.372-1.539A3.856,3.856,0,0,1,17.83,9.056h1.288a3.854,3.854,0,0,1,3.836,3.427A1.32,1.32,0,0,1,22.612,13.56ZM20.033,27.95a3.115,3.115,0,1,0-3.119,0,4.63,4.63,0,0,0-3.692,4.028,2.161,2.161,0,0,0,2.146,2.4h6.214a2.161,2.161,0,0,0,2.146-2.4A4.641,4.641,0,0,0,20.033,27.95Zm-3.9-2.693A2.341,2.341,0,1,1,18.473,27.6,2.343,2.343,0,0,1,16.133,25.257Zm6.479,7.884a1.337,1.337,0,0,1-1.03.463H15.365a1.384,1.384,0,0,1-1.372-1.539,3.856,3.856,0,0,1,3.836-3.427h1.288a3.854,3.854,0,0,1,3.836,3.427A1.324,1.324,0,0,1,22.612,33.141ZM34.366,22.225A4.634,4.634,0,0,0,30.674,18.2a3.115,3.115,0,1,0-3.119,0,4.63,4.63,0,0,0-3.692,4.028,2.161,2.161,0,0,0,2.146,2.4h6.214a2.156,2.156,0,0,0,2.143-2.4ZM26.774,15.5a2.341,2.341,0,1,1,2.341,2.341A2.343,2.343,0,0,1,26.774,15.5Zm6.479,7.884a1.337,1.337,0,0,1-1.03.463H26.006a1.384,1.384,0,0,1-1.372-1.539,3.856,3.856,0,0,1,3.836-3.427h1.288a3.856,3.856,0,0,1,3.836,3.427A1.332,1.332,0,0,1,33.253,23.389ZM9.392,18.2a3.115,3.115,0,1,0-3.119,0,4.626,4.626,0,0,0-3.692,4.024,2.161,2.161,0,0,0,2.146,2.4h6.214a2.161,2.161,0,0,0,2.146-2.4A4.634,4.634,0,0,0,9.392,18.2Zm-3.9-2.7a2.341,2.341,0,1,1,2.341,2.341A2.343,2.343,0,0,1,5.492,15.5Zm6.479,7.884a1.337,1.337,0,0,1-1.03.463H4.724a1.384,1.384,0,0,1-1.372-1.539,3.856,3.856,0,0,1,3.836-3.427H8.477a3.856,3.856,0,0,1,3.836,3.427A1.321,1.321,0,0,1,11.971,23.389Zm10.4-16.1a.388.388,0,0,1,.5-.221A12.225,12.225,0,0,1,28.222,11.1a.386.386,0,0,1-.074.543.39.39,0,0,1-.543-.077,11.446,11.446,0,0,0-5.014-3.776A.392.392,0,0,1,22.367,7.285ZM8.725,11.095A12.225,12.225,0,0,1,14.077,7.06a.389.389,0,0,1,.282.724,11.49,11.49,0,0,0-5.014,3.776.387.387,0,0,1-.309.154.409.409,0,0,1-.235-.077A.39.39,0,0,1,8.725,11.095Zm4.3,17.891a.387.387,0,0,1-.339.2.4.4,0,0,1-.191-.05A12.212,12.212,0,0,1,8.919,26.1a.389.389,0,0,1,.607-.486,11.421,11.421,0,0,0,3.35,2.844A.391.391,0,0,1,13.027,28.986Zm15-2.887a12.212,12.212,0,0,1-3.578,3.038.389.389,0,0,1-.53-.148.393.393,0,0,1,.148-.53,11.432,11.432,0,0,0,3.35-2.847.39.39,0,0,1,.61.486Z" transform="translate(0 0)" fill="#000048" stroke="#000048" stroke-width="0.5"/>
    </g>
  </g>
</svg>
