<svg xmlns="http://www.w3.org/2000/svg" width="32" height="32" viewBox="0 0 32 32">
  <g id="Group_41728" data-name="Group 41728" transform="translate(7729 -9056)">
    <rect id="Rectangle_17689" data-name="Rectangle 17689" width="32" height="32" transform="translate(-7729 9056)" fill="none"/>
    <path id="star_shape" data-name="star shape" d="M24.69,11.145a1.134,1.134,0,0,0-.976-.76l-6.455-.942L14.367,3.577a1.135,1.135,0,0,0-2.042,0L9.432,9.431l-6.455.953a1.121,1.121,0,0,0-.635,1.906l4.685,4.538L5.892,23.272a1.134,1.134,0,0,0,1.645,1.214l5.809-3.029,5.786,3.04a1.055,1.055,0,0,0,.522.136,1.138,1.138,0,0,0,1.123-1.35L19.642,16.84,24.327,12.3a1.134,1.134,0,0,0,.363-1.157Zm-6.977,4.538a1.135,1.135,0,0,0-.329,1.01l.817,4.754-4.266-2.269a1.135,1.135,0,0,0-1.066,0L8.6,21.446l.817-4.754a1.135,1.135,0,0,0-.329-1.01l-3.4-3.4,4.776-.692a1.134,1.134,0,0,0,.862-.624l2.019-4.322,2.133,4.334a1.134,1.134,0,0,0,.862.624l4.776.692Z" transform="translate(-7726.368 9058.215)" fill="#000048"/>
  </g>
</svg>
