<svg xmlns="http://www.w3.org/2000/svg" width="32" height="32" viewBox="0 0 32 32">
  <g id="Group_41728" data-name="Group 41728" transform="translate(7729 -9056)">
    <rect id="Rectangle_17689" data-name="Rectangle 17689" width="32" height="32" transform="translate(-7729 9056)" fill="none"/>
    <path id="Vector" d="M15.372,12.336a4.476,4.476,0,0,0,1.2-3,4.536,4.536,0,0,0-9.072,0,4.476,4.476,0,0,0,1.2,3,7.128,7.128,0,0,0-3.9,5.532,1.207,1.207,0,1,0,2.4.264,4.8,4.8,0,0,1,9.528,0A1.2,1.2,0,0,0,18,19.2h.132a1.2,1.2,0,0,0,1.056-1.32,7.128,7.128,0,0,0-3.816-5.544ZM12,11.472a2.136,2.136,0,1,1,1.51-.626A2.136,2.136,0,0,1,12,11.472ZM20.4,0H3.6A3.6,3.6,0,0,0,0,3.6V20.4A3.6,3.6,0,0,0,3.6,24H20.4A3.6,3.6,0,0,0,24,20.4V3.6A3.6,3.6,0,0,0,20.4,0Zm1.2,20.4a1.2,1.2,0,0,1-1.2,1.2H3.6a1.2,1.2,0,0,1-1.2-1.2V3.6A1.2,1.2,0,0,1,3.6,2.4H20.4a1.2,1.2,0,0,1,1.2,1.2Z" transform="translate(-7725 9060)" fill="#000048"/>
  </g>
</svg>
