<svg xmlns="http://www.w3.org/2000/svg" width="32" height="32" viewBox="0 0 32 32">
  <g id="Group_41720" data-name="Group 41720" transform="translate(7729 -9056)">
    <rect id="Rectangle_17689" data-name="Rectangle 17689" width="32" height="32" transform="translate(-7729 9056)" fill="none"/>
    <path id="approve_file" data-name="approve file" d="M11,19H5.334a.945.945,0,0,1-.945-.945V4.834a.945.945,0,0,1,.945-.945h4.723V6.723a2.834,2.834,0,0,0,2.834,2.834h2.834V14.28a.945.945,0,0,0,1.889,0V8.556a1.234,1.234,0,0,0-.057-.255V8.216a1.011,1.011,0,0,0-.179-.264L11.71,2.283a1.012,1.012,0,0,0-.264-.179.274.274,0,0,0-.094,0,1.038,1.038,0,0,0-.293-.1H5.334A2.834,2.834,0,0,0,2.5,4.834V18.058a2.834,2.834,0,0,0,2.834,2.834H11A.945.945,0,0,0,11,19Zm.945-13.782,2.447,2.447h-1.5a.945.945,0,0,1-.945-.945ZM7.223,13.335h5.668a.945.945,0,0,0,0-1.889H7.223a.945.945,0,0,0,0,1.889ZM11,15.225H7.223a.945.945,0,0,0,0,1.889H11a.945.945,0,0,0,0-1.889ZM7.223,9.557h.945a.945.945,0,1,0,0-1.889H7.223a.945.945,0,1,0,0,1.889ZM20.174,15.5a.945.945,0,0,0-1.341,0l-3.108,3.117-1.219-1.228a.948.948,0,1,0-1.341,1.341l1.889,1.889a.945.945,0,0,0,1.341,0l3.778-3.778a.945.945,0,0,0,0-1.341Z" transform="translate(-7724.477 9060.551)" fill="#000048"/>
  </g>
</svg>
