<svg xmlns="http://www.w3.org/2000/svg" width="32" height="32" viewBox="0 0 32 32">
  <g id="Group_42018" data-name="Group 42018" transform="translate(7729 -9056)">
    <rect id="Rectangle_17689" data-name="Rectangle 17689" width="32" height="32" transform="translate(-7729 9056)" fill="none"/>
    <g id="Group_42020" data-name="Group 42020" transform="translate(-7725.998 9059.011)">
      <path id="Path_18538" data-name="Path 18538" d="M7.6,2.986A.769.769,0,0,0,7.461,3c-.7,0-1.322.016-1.828.074A2.921,2.921,0,0,0,3.805,3.8a2.922,2.922,0,0,0-.727,1.828A26.651,26.651,0,0,0,3,8.38v9.228a26.5,26.5,0,0,0,.08,2.75,2.921,2.921,0,0,0,.728,1.828,2.922,2.922,0,0,0,1.828.727,26.651,26.651,0,0,0,2.747.078h9.228a26.51,26.51,0,0,0,2.75-.08,2.921,2.921,0,0,0,1.828-.728,2.922,2.922,0,0,0,.727-1.828,26.651,26.651,0,0,0,.078-2.747V9.918a5.028,5.028,0,0,0-.344-2.394,9.58,9.58,0,0,0-1.932-2.25,9.624,9.624,0,0,0-2.244-1.933A4.788,4.788,0,0,0,16.2,3a.769.769,0,0,0-.236,0H8.383c-.235,0-.413,0-.626,0A.769.769,0,0,0,7.6,2.986Zm.781,1.549H15.3V7.613H8.383Zm-1.538.012V8.382a.769.769,0,0,0,.769.769h8.459a.769.769,0,0,0,.769-.769V4.554a2.413,2.413,0,0,1,.942.162A10.121,10.121,0,0,1,19.63,6.36l0,0a10.026,10.026,0,0,1,1.643,1.85,3.819,3.819,0,0,1,.182,1.706v7.69c0,1.15,0,2-.069,2.576a1.538,1.538,0,0,1-.285.913,1.535,1.535,0,0,1-.913.287c-.574.065-1.426.069-2.577.069H8.383c-1.15,0-2,0-2.576-.069a1.538,1.538,0,0,1-.913-.285,1.535,1.535,0,0,1-.287-.913c-.065-.573-.069-1.426-.069-2.577V8.38c0-1.15,0-2,.069-2.576a1.538,1.538,0,0,1,.285-.913A1.535,1.535,0,0,1,5.806,4.6c.278-.031.628-.048,1.039-.057Z" transform="translate(0 0)" fill="#000048"/>
      <path id="Path_18539" data-name="Path 18539" d="M16,16a4,4,0,1,0,4,4A4.015,4.015,0,0,0,16,16Zm0,2a2,2,0,1,1-2,2A1.985,1.985,0,0,1,16,18Z" transform="translate(-3.003 -4.341)" fill="#000048"/>
    </g>
  </g>
</svg>
