<svg xmlns="http://www.w3.org/2000/svg" width="48" height="48" viewBox="0 0 48 48">
  <g id="Group_41901" data-name="Group 41901" transform="translate(0 -0.12)">
    <rect id="Rectangle_17829" data-name="Rectangle 17829" width="48" height="48" transform="translate(0 0.12)" fill="#fff"/>
    <path id="Path_18479" data-name="Path 18479" d="M5.526,13.5a1.286,1.286,0,0,0,.332-2.551l-2.245-.561a1.276,1.276,0,1,0-.663,2.462l2.245.6A.993.993,0,0,0,5.526,13.5Zm4.924-7.13a1.276,1.276,0,0,0,1.276.944,1.046,1.046,0,0,0,.332,0,1.276,1.276,0,0,0,.893-1.556l-.6-2.245a1.276,1.276,0,1,0-2.462.663ZM16.61,19.129a1.275,1.275,0,0,0-1.85,0L10.3,23.67a2.819,2.819,0,0,1-3.9,0,2.742,2.742,0,0,1,0-3.9L10.934,15.3a1.276,1.276,0,1,0-1.8-1.8L4.556,17.956a5.339,5.339,0,0,0,7.551,7.551l4.5-4.5a1.276,1.276,0,0,0,0-1.875ZM6.061,8.4a1.272,1.272,0,0,0,1.8-1.8L6.214,4.958a1.276,1.276,0,0,0-1.8,1.8Zm20.511,9.35-2.245-.6a1.276,1.276,0,1,0-.638,2.462l2.245.6h.332a1.286,1.286,0,0,0,.332-2.551Zm-7.5,6.48a1.275,1.275,0,0,0-2.462.663l.6,2.245a1.276,1.276,0,0,0,1.276.944,1.471,1.471,0,0,0,.332,0,1.276,1.276,0,0,0,.906-1.569Zm4.388-2a1.276,1.276,0,0,0-1.8,1.8l1.645,1.645a1.272,1.272,0,0,0,1.8-1.8ZM26.5,8.925A5.306,5.306,0,0,0,17.414,5.1l-4.5,4.541a1.3,1.3,0,1,0,1.85,1.837l4.464-4.541a2.819,2.819,0,0,1,3.9,0,2.742,2.742,0,0,1,0,3.9L18.587,15.3a1.272,1.272,0,0,0,1.8,1.8l4.579-4.452A5.345,5.345,0,0,0,26.5,8.925Z" transform="translate(9.16 8.688)" fill="#000048" stroke="#fff" stroke-width="1"/>
  </g>
</svg>
