<svg xmlns="http://www.w3.org/2000/svg" width="32" height="32" viewBox="0 0 32 32">
  <g id="Group_41458" data-name="Group 41458" transform="translate(7729)">
    <rect id="Rectangle_17689" data-name="Rectangle 17689" width="32" height="32" transform="translate(-7729)" fill="none"/>
    <path id="bars" d="M3.161,8.822h20.9a1.161,1.161,0,0,0,0-2.322H3.161a1.161,1.161,0,1,0,0,2.322Zm20.9,9.288H3.161a1.161,1.161,0,0,0,0,2.322h20.9a1.161,1.161,0,0,0,0-2.322Zm0-5.8H3.161a1.161,1.161,0,0,0,0,2.322h20.9a1.161,1.161,0,0,0,0-2.322Z" transform="translate(-7726.609 2.534)" fill="#000048"/>
  </g>
</svg>
