<svg xmlns="http://www.w3.org/2000/svg" width="32" height="32" viewBox="0 0 32 32">
  <g id="Group_41720" data-name="Group 41720" transform="translate(7729 -9056)">
    <rect id="Rectangle_17689" data-name="Rectangle 17689" width="32" height="32" transform="translate(-7729 9056)" fill="none"/>
    <path id="Share" d="M17.636,9.833a3.91,3.91,0,0,1-3.011-1.447l-4.986,2.3a3.558,3.558,0,0,1,0,2.209l4.986,2.3a3.911,3.911,0,1,1-.9,2.464,4.073,4.073,0,0,1,.068-.694L8.633,14.584a3.91,3.91,0,1,1,0-5.592l5.162-2.376a4.072,4.072,0,0,1-.068-.694,3.91,3.91,0,1,1,3.91,3.91Zm0,9.776a1.955,1.955,0,1,0-1.383-.573A1.955,1.955,0,0,0,17.636,19.609ZM5.905,9.833a1.955,1.955,0,1,0,1.383.573A1.955,1.955,0,0,0,5.905,9.833ZM17.636,3.967a1.955,1.955,0,1,0,1.383.573A1.955,1.955,0,0,0,17.636,3.967Z" transform="translate(-7724.768 9060.196)" fill="#010048"/>
  </g>
</svg>
