<svg id="Component_83_2" data-name="Component 83 – 2" xmlns="http://www.w3.org/2000/svg" width="40" height="40" viewBox="0 0 40 40">
  <g id="Group_41873" data-name="Group 41873">
    <rect id="Rectangle_17787" data-name="Rectangle 17787" width="40" height="40" rx="8" fill="#010049"/>
    <path id="Trash" d="M12.466,23.636a1.352,1.352,0,0,0,1.352-1.352V14.17a1.352,1.352,0,0,0-2.7,0v8.114a1.352,1.352,0,0,0,1.352,1.352ZM25.989,7.409H20.58V6.057A4.057,4.057,0,0,0,16.523,2h-2.7A4.057,4.057,0,0,0,9.761,6.057V7.409H4.352a1.352,1.352,0,1,0,0,2.7H5.7V24.989a4.057,4.057,0,0,0,4.057,4.057H20.58a4.057,4.057,0,0,0,4.057-4.057V10.114h1.352a1.352,1.352,0,0,0,0-2.7ZM12.466,6.057A1.352,1.352,0,0,1,13.818,4.7h2.7a1.352,1.352,0,0,1,1.352,1.352V7.409H12.466Zm9.466,18.932a1.352,1.352,0,0,1-1.352,1.352H9.761a1.352,1.352,0,0,1-1.352-1.352V10.114H21.932Zm-4.057-1.352a1.352,1.352,0,0,0,1.352-1.352V14.17a1.352,1.352,0,0,0-2.7,0v8.114a1.352,1.352,0,0,0,1.352,1.352Z" transform="translate(5.06 4.956)" fill="#fff" stroke="#010047" stroke-width="0.5"/>
  </g>
</svg>
