<svg xmlns="http://www.w3.org/2000/svg" width="12.778" height="12.778" viewBox="0 0 12.778 12.778">
  <path id="Vector" d="M11.443,9.132H8.549a.639.639,0,0,0,0,1.278h1.533a5.111,5.111,0,0,1-8.8-3.52A.639.639,0,1,0,0,6.889a6.389,6.389,0,0,0,10.785,4.619v1.131a.639.639,0,0,0,1.278,0V9.764a.639.639,0,0,0-.62-.633ZM6.389.5a6.389,6.389,0,0,0-4.4,1.77V1.139a.639.639,0,1,0-1.278,0V4.014a.639.639,0,0,0,.639.639H4.23a.639.639,0,1,0,0-1.278H2.7a5.111,5.111,0,0,1,8.8,3.514.639.639,0,0,0,1.278,0A6.389,6.389,0,0,0,6.389.5Z" transform="translate(0 -0.5)" fill="#010048"/>
</svg>
