<svg xmlns="http://www.w3.org/2000/svg" xmlns:xlink="http://www.w3.org/1999/xlink" width="44" height="44" viewBox="0 0 44 44">
  <defs>
    <filter id="Rectangle_17800" x="0" y="0" width="44" height="44" filterUnits="userSpaceOnUse">
      <feOffset dy="3" input="SourceAlpha"/>
      <feGaussianBlur stdDeviation="3" result="blur"/>
      <feFlood flood-opacity="0.161"/>
      <feComposite operator="in" in2="blur"/>
      <feComposite in="SourceGraphic"/>
    </filter>
  </defs>
  <g id="Component_87_7" data-name="Component 87 – 7" transform="translate(9 6)">
    <g transform="matrix(1, 0, 0, 1, -9, -6)" filter="url(#Rectangle_17800)">
      <rect id="Rectangle_17800-2" data-name="Rectangle 17800" width="26" height="26" rx="13" transform="translate(9 6)" fill="#f7f7f5"/>
    </g>
    <path id="Vector" d="M11.443,9.132H8.549a.639.639,0,0,0,0,1.278h1.533a5.111,5.111,0,0,1-8.8-3.52A.639.639,0,1,0,0,6.889a6.389,6.389,0,0,0,10.785,4.619v1.131a.639.639,0,0,0,1.278,0V9.764a.639.639,0,0,0-.62-.633ZM6.389.5a6.389,6.389,0,0,0-4.4,1.77V1.139a.639.639,0,1,0-1.278,0V4.014a.639.639,0,0,0,.639.639H4.23a.639.639,0,1,0,0-1.278H2.7a5.111,5.111,0,0,1,8.8,3.514.639.639,0,0,0,1.278,0A6.389,6.389,0,0,0,6.389.5Z" transform="translate(7 6.5)" fill="#010048"/>
  </g>
</svg>
